<?xml version="1.0" standalone="no"?>
<!DOCTYPE svg PUBLIC "-//W3C//DTD SVG 20010904//EN"
 "http://www.w3.org/TR/2001/REC-SVG-20010904/DTD/svg10.dtd">
<svg version="1.0" xmlns="http://www.w3.org/2000/svg"
 width="670.000000pt" height="450.000000pt" viewBox="0 0 670.000000 450.000000"
 preserveAspectRatio="xMidYMid meet">

<g transform="translate(0.000000,450.000000) scale(0.100000,-0.100000)"
fill="#000000" stroke="none">
<path d="M1507 3261 c-92 -5 -111 -9 -123 -25 -8 -11 -14 -24 -14 -29 0 -12
83 -198 190 -422 75 -159 110 -235 110 -240 0 -2 18 -44 41 -92 22 -49 52
-113 66 -143 31 -67 59 -128 114 -245 23 -49 50 -110 61 -135 27 -63 65 -110
102 -125 17 -7 73 -14 124 -14 100 -1 159 16 195 56 10 12 49 88 86 169 38 82
83 181 101 219 18 39 44 95 57 125 14 30 46 100 72 155 62 133 66 141 197 428
63 137 114 260 114 273 0 38 -33 48 -175 52 -173 4 -183 0 -247 -128 -27 -52
-54 -112 -60 -132 -6 -21 -15 -38 -19 -38 -4 0 -13 -17 -19 -37 -7 -21 -24
-63 -37 -93 -14 -30 -33 -73 -43 -95 -10 -22 -33 -71 -50 -110 -17 -38 -41
-90 -51 -115 -11 -25 -29 -63 -39 -85 -11 -22 -28 -61 -39 -87 -11 -27 -26
-48 -33 -48 -7 0 -26 31 -42 68 -37 84 -82 185 -106 237 -10 22 -75 167 -144
321 -70 155 -136 291 -146 302 -21 22 -81 43 -115 40 -11 -1 -69 -4 -128 -7z"/>
<path d="M3241 3258 c-64 -17 -61 16 -61 -730 l0 -677 24 -28 c23 -27 28 -28
137 -31 157 -5 189 7 213 82 4 10 6 309 6 664 0 571 -2 648 -16 678 -9 19 -26
36 -38 39 -41 8 -234 10 -265 3z"/>
<path d="M3917 3251 c-17 -9 -37 -27 -44 -41 -10 -19 -13 -176 -13 -679 0
-711 0 -704 56 -730 14 -6 72 -11 130 -11 114 0 165 14 184 50 6 12 12 76 13
148 l2 127 320 6 c355 7 406 14 531 73 116 55 198 155 240 291 14 47 18 93 18
210 0 132 -2 159 -24 224 -59 182 -179 284 -385 326 -120 25 -981 29 -1028 6z
m843 -286 c86 -18 127 -38 162 -78 70 -80 73 -306 6 -383 -69 -78 -162 -96
-473 -92 l-210 3 -2 283 -2 282 224 0 c160 0 244 -4 295 -15z"/>
</g>
</svg>
