<svg xmlns="http://www.w3.org/2000/svg" xmlns:xlink="http://www.w3.org/1999/xlink" viewBox="0,0,256,256" width="48px" height="48px" fill-rule="nonzero"><defs><linearGradient x1="-8.453" y1="62.676" x2="50.204" y2="-7.229" gradientUnits="userSpaceOnUse" id="color-1"><stop offset="0" stop-color="#ffffff"></stop><stop offset="1" stop-color="#000000" stop-opacity="0.81176"></stop></linearGradient><linearGradient x1="13.361" y1="36.68" x2="88.071" y2="-52.357" gradientUnits="userSpaceOnUse" id="color-2"><stop offset="0" stop-color="#ffffff"></stop><stop offset="1" stop-color="#000000" stop-opacity="0.81176"></stop></linearGradient></defs><g fill="none" fill-rule="nonzero" stroke="none" stroke-width="1" stroke-linecap="butt" stroke-linejoin="miter" stroke-miterlimit="10" stroke-dasharray="" stroke-dashoffset="0" font-family="none" font-weight="none" font-size="none" text-anchor="none" style="mix-blend-mode: normal"><g transform="scale(5.33333,5.33333)"><path d="M35,43h-30v-30c0,-4.418 3.582,-8 8,-8h30v30c0,4.418 -3.582,8 -8,8zM30,16.5c0,0.828 0.672,1.5 1.5,1.5c0.828,0 1.5,-0.672 1.5,-1.5c0,-0.828 -0.672,-1.5 -1.5,-1.5c-0.828,0 -1.5,0.672 -1.5,1.5zM18,24c0,3.314 2.686,6 6,6c3.314,0 6,-2.686 6,-6c0,-3.314 -2.686,-6 -6,-6c-3.314,0 -6,2.686 -6,6zM38,33v-23h-23c-2.757,0 -5,2.243 -5,5v23h23c2.757,0 5,-2.243 5,-5zM12,15c0,-1.654 1.346,-3 3,-3h21v21c0,1.654 -1.346,3 -3,3h-21z" fill="url(#color-1)"></path><path d="M30,24c0,3.314 -2.686,6 -6,6c-3.314,0 -6,-2.686 -6,-6c0,-3.314 2.686,-6 6,-6c3.314,0 6,2.686 6,6zM31.5,15c-0.828,0 -1.5,0.672 -1.5,1.5c0,0.828 0.672,1.5 1.5,1.5c0.828,0 1.5,-0.672 1.5,-1.5c0,-0.828 -0.672,-1.5 -1.5,-1.5zM38,33v-23h-23c-2.757,0 -5,2.243 -5,5v23h23c2.757,0 5,-2.243 5,-5zM12,15c0,-1.654 1.346,-3 3,-3h21v21c0,1.654 -1.346,3 -3,3h-21z" fill="url(#color-2)"></path></g></g></svg>